<?xml version="1.0" standalone="no"?>
<!DOCTYPE svg PUBLIC "-//W3C//DTD SVG 20010904//EN"
 "http://www.w3.org/TR/2001/REC-SVG-20010904/DTD/svg10.dtd">
<svg version="1.0" xmlns="http://www.w3.org/2000/svg"
 width="768.000000pt" height="768.000000pt" viewBox="0 0 768.000000 768.000000"
 preserveAspectRatio="xMidYMid meet">
<metadata>
Created by potrace 1.14, written by Peter Selinger 2001-2017
</metadata>
<g transform="translate(0.000000,768.000000) scale(0.100000,-0.100000)"
fill="#000000" stroke="none">
<path d="M3797 7374 c-1 -2 -29 -4 -62 -5 -292 -10 -768 -141 -961 -264 -28
-18 -104 -61 -170 -95 -251 -131 -291 -154 -349 -203 -33 -28 -65 -55 -70 -61
-6 -6 -46 -42 -90 -81 -132 -115 -178 -167 -267 -302 -134 -201 -174 -278
-197 -373 -60 -253 -67 -489 -20 -663 6 -23 13 -51 15 -62 21 -109 96 -305
149 -388 25 -39 50 -88 55 -108 6 -21 31 -59 56 -86 25 -26 70 -91 101 -143
31 -52 68 -106 82 -120 26 -25 102 -91 137 -120 53 -43 167 -140 230 -196 133
-119 217 -176 381 -258 272 -135 398 -167 655 -167 133 0 196 9 353 52 153 42
163 47 220 100 49 45 153 135 272 234 34 28 85 87 117 135 32 47 79 101 105
121 77 59 86 94 96 389 5 132 -7 192 -60 307 -54 116 -118 207 -222 311 -54
53 -123 127 -153 164 -30 36 -66 73 -80 81 -28 17 -58 44 -107 99 -41 45 -206
127 -318 158 -90 25 -249 32 -370 17 -80 -10 -165 -50 -192 -90 -38 -56 -48
-137 -23 -201 14 -39 150 -174 253 -254 56 -43 126 -105 154 -136 63 -68 98
-82 141 -55 52 31 67 63 55 115 -9 40 -8 46 10 59 25 17 98 42 145 49 79 11
163 -45 186 -124 11 -37 11 -58 0 -122 -20 -112 -46 -180 -106 -272 -71 -108
-69 -106 -178 -220 -118 -123 -212 -199 -326 -264 -79 -44 -245 -117 -292
-127 -9 -2 -33 -9 -52 -15 -20 -6 -93 -9 -171 -7 -132 4 -137 5 -211 40 -163
78 -259 181 -316 336 -68 185 -82 267 -87 509 -3 153 47 418 95 498 11 19 33
68 50 108 22 52 44 85 74 113 23 21 62 65 86 98 84 116 325 335 369 335 6 0
11 5 11 10 0 6 7 10 15 10 8 0 54 30 102 67 153 116 359 251 455 297 87 42
241 99 298 110 14 2 48 10 75 16 68 16 72 17 135 25 30 4 62 9 70 10 80 15
329 22 390 11 14 -3 42 -7 63 -10 39 -6 119 -33 256 -86 68 -26 97 -45 150
-95 36 -35 91 -83 122 -109 31 -25 73 -68 94 -96 78 -106 169 -375 200 -590
17 -118 12 -430 -9 -560 -22 -137 -70 -310 -99 -361 -14 -24 -30 -63 -36 -85
-6 -23 -23 -59 -38 -80 -14 -22 -57 -84 -94 -139 -68 -102 -92 -130 -145 -175
-16 -14 -53 -54 -83 -90 -30 -35 -70 -77 -90 -92 -20 -15 -47 -37 -61 -50 -14
-13 -62 -56 -106 -96 -45 -40 -106 -96 -136 -125 -31 -29 -90 -70 -133 -92
-55 -29 -84 -50 -101 -76 -16 -26 -43 -46 -96 -71 -40 -20 -181 -103 -314
-185 -132 -83 -269 -165 -305 -182 -35 -18 -122 -68 -194 -110 -71 -43 -161
-95 -200 -116 -52 -29 -104 -72 -206 -174 -259 -259 -308 -332 -421 -616 -47
-117 -52 -177 -32 -330 17 -125 33 -182 133 -479 59 -173 84 -262 91 -325 15
-128 19 -147 50 -256 41 -144 52 -208 51 -294 -1 -119 1 -121 97 -198 48 -39
101 -77 117 -85 54 -27 134 -50 155 -43 11 3 37 36 57 73 l38 67 -1 125 c-1
168 -12 401 -23 475 -15 99 -48 229 -86 332 -20 54 -40 109 -45 123 -40 110
-29 261 26 371 34 68 80 134 116 166 84 74 202 210 299 343 34 47 66 87 70 88
5 2 9 8 9 13 0 19 100 108 199 178 54 39 105 77 113 84 7 7 42 27 78 44 36 17
126 60 200 96 74 35 161 80 192 100 31 21 73 39 92 42 45 5 68 18 97 53 13 15
51 44 84 64 33 20 93 60 132 90 40 29 101 73 135 98 35 25 106 79 158 120 52
42 129 96 170 120 145 84 226 162 281 271 34 69 119 203 139 219 12 10 75 115
96 159 12 25 31 57 44 71 30 34 42 61 72 160 35 114 49 202 46 277 -2 59 -1
64 32 98 l35 36 0 97 c-1 85 -6 198 -20 427 -9 132 -50 271 -137 454 -54 115
-102 189 -192 301 -34 41 -68 83 -76 94 -8 10 -20 23 -25 30 -6 6 -35 43 -65
81 -30 39 -70 86 -88 105 -18 19 -71 85 -118 147 -73 97 -96 120 -176 175 -51
35 -124 95 -163 134 -81 82 -97 94 -225 161 -52 27 -113 60 -135 73 -85 49
-243 128 -317 158 -157 63 -220 75 -386 77 -84 1 -153 0 -155 -1z"/>
</g>
</svg>
